<svg id="Group_1877" data-name="Group 1877" xmlns="http://www.w3.org/2000/svg" viewBox="-624.444 8779.949 572.413 588.338">
  <defs>
    <style>
      .cls-1 {
        fill: #00a8ff;
      }

      .cls-2, .cls-6 {
        fill: #fff;
      }

      .cls-3 {
        fill: #f7b228;
      }

      .cls-4 {
        fill: #0054ff;
      }

      .cls-5 {
        fill: #808d8b;
        font-size: 54px;
      }

      .cls-5, .cls-6 {
        font-family: BebasNeue, Bebas Neue;
      }

      .cls-6 {
        font-size: 27px;
      }

      .cls-7 {
        fill: #2a5db1;
      }

      .cls-11, .cls-7 {
        font-size: 20px;
      }

      .cls-10, .cls-11, .cls-7, .cls-9 {
        font-family: HelveticaNeueLTStd-Bd, Helvetica Neue LT Std;
      }

      .cls-12, .cls-8 {
        fill: #2b2e34;
        font-family: HelveticaNeueLTStd-Th, Helvetica Neue LT Std;
      }

      .cls-8 {
        font-size: 19px;
      }

      .cls-9 {
        fill: #44abde;
      }

      .cls-10, .cls-9 {
        font-size: 21px;
      }

      .cls-10, .cls-11 {
        fill: #ffaf35;
      }

      .cls-12 {
        font-size: 18px;
      }
    </style>
  </defs>
  <g id="Group_1876" data-name="Group 1876" transform="translate(-1692.405 8777.71)">
    <path id="Path_1870" data-name="Path 1870" class="cls-1" d="M44.89,145.265-24.921-69.588A216.911,216.911,0,0,1,44.89-80.645Z" transform="translate(1368.429 150.562)"/>
    <path id="Path_1871" data-name="Path 1871" class="cls-2" d="M46.554,150.654l-72.4-222.823,1.09-.353A217.613,217.613,0,0,1,45.408-83.637h1.146ZM-22.957-70.7l67.22,206.88V-81.343A214.929,214.929,0,0,0-22.957-70.7" transform="translate(1367.91 152.406)"/>
    <path id="Path_1872" data-name="Path 1872" class="cls-3" d="M131.654,138.155-73.089,42.682C-45.987-15.44.854-56.882,61.843-76.7Z" transform="translate(1281.665 157.672)"/>
    <path id="Path_1873" data-name="Path 1873" class="cls-2" d="M133.859,140.468-74.313,43.4l.485-1.039C-46.533-16.177.364-57.667,61.79-77.626l1.09-.356.356,1.09ZM-71.265,42.288l201.314,93.877L61.409-75.091C1.5-55.317-44.339-14.763-71.265,42.288" transform="translate(1281.364 157.51)"/>
    <path id="Path_1874" data-name="Path 1874" class="cls-4" d="M145.264,145.265V-80.645c124.766,0,225.909,101.143,225.909,225.91s-101.143,225.91-225.909,225.91S-80.645,270.031-80.645,145.265c0-35.809,6.031-63.02,21.166-95.473Z" transform="translate(1268.054 150.562)"/>
    <path id="Path_1875" data-name="Path 1875" class="cls-2" d="M146,292C20.8,292-81.054,190.147-81.054,64.949c0-35.753,6.163-63.556,21.273-95.958l.485-1.039,204.152,95.2v-225.26H146c125.2,0,227.055,101.857,227.055,227.058S271.2,292,146,292M-58.187-29c-14.8,32.03-20.575,58.477-20.575,93.952,0,123.934,100.829,224.764,224.764,224.764S370.765,188.883,370.765,64.949c0-123.551-100.213-224.139-223.618-224.764V66.745Z" transform="translate(1267.317 230.878)"/>
    <path id="Path_1876" data-name="Path 1876" class="cls-2" d="M203.186,101.594a157.994,157.994,0,1,1-158-158,157.995,157.995,0,0,1,158,158" transform="translate(1368.126 194.232)"/>
    <path id="Path_1877" data-name="Path 1877" class="cls-2" d="M101.859,203.718c-87.347,0-158.407-71.063-158.407-158.407S14.512-113.1,101.859-113.1,260.266-42.036,260.266,45.311s-71.06,158.407-158.407,158.407m0-315.99c-86.89,0-157.581,70.69-157.581,157.583s70.69,157.581,157.581,157.581S259.439,132.2,259.439,45.311s-70.69-157.583-157.581-157.583" transform="translate(1311.46 250.516)"/>
    <text id="USE" class="cls-5" transform="translate(1335.91 253.048)"><tspan x="0" y="0">USE</tspan></text>
    <text id="OF_FUNDS" data-name="OF FUNDS" class="cls-5" transform="translate(1333.52 306.295)"><tspan x="0" y="0">OF FUNDS</tspan></text>
    <text id="IN_2016" data-name="IN 2016" class="cls-5" transform="translate(1334.206 359.541)"><tspan x="0" y="0">IN 2016</tspan></text>
    <text id="_5_" data-name="5%" class="cls-6" transform="translate(1370.639 113.614)"><tspan x="0" y="0">5%</tspan></text>
    <text id="_83_" data-name="83%" class="cls-6" transform="translate(1403.481 493.555)"><tspan x="0" y="0">83%</tspan></text>
    <text id="_13_" data-name="13%" class="cls-6" transform="translate(1269.154 156.196)"><tspan x="0" y="0">13%</tspan></text>
    <text id="Program_Services" data-name="Program Services" class="cls-7" transform="translate(1432.25 558.685)"><tspan x="0" y="0">Program Services</tspan></text>
    <text id="_8_326_242" data-name="$8,326,242" class="cls-8" transform="translate(1432.25 585.577)"><tspan x="0" y="0">$8,326,242</tspan></text>
    <text id="Fundraising" class="cls-9" transform="translate(1372.046 17.24)"><tspan x="0" y="0">Fundraising</tspan></text>
    <text id="_520_048" data-name="$ 520,048" class="cls-8" transform="translate(1372.046 44.132)"><tspan x="0" y="0">$ 520,048</tspan></text>
    <text id="Management" class="cls-10" transform="translate(1067.96 77.094)"><tspan x="0" y="0">Management</tspan></text>
    <text id="_General" data-name="&amp; General" class="cls-11" transform="translate(1072.37 107.347)"><tspan x="0" y="0">&amp; General</tspan></text>
    <text id="_1_138_587" data-name="$ 1,138,587" class="cls-12" transform="translate(1107.361 134.24)"><tspan x="0" y="0">$ 1,138,587</tspan></text>
  </g>
</svg>
