<svg xmlns="http://www.w3.org/2000/svg" xmlns:xlink="http://www.w3.org/1999/xlink" viewBox="976.5 2711.5 186 186">
  <defs>
    <style>
      .cls-1, .cls-4, .cls-6 {
        fill: none;
      }

      .cls-2 {
        clip-path: url(#clip-path);
      }

      .cls-3 {
        fill: #fff;
      }

      .cls-4, .cls-6 {
        stroke: #0af;
      }

      .cls-4 {
        stroke-width: 4px;
      }

      .cls-5 {
        fill: #0af;
        stroke: #fff;
        stroke-width: 1.2px;
      }

      .cls-6 {
        stroke-width: 0.7px;
      }
    </style>
    <clipPath id="clip-path">
      <path id="Path_642" data-name="Path 642" class="cls-1" d="M0,57H186V-129H0Z" transform="translate(0 129)"/>
    </clipPath>
  </defs>
  <g id="Group_933" data-name="Group 933" transform="translate(976.5 2711.5)">
    <g id="Group_927" data-name="Group 927" class="cls-2">
      <g id="Group_925" data-name="Group 925" transform="translate(2.884 2.884)">
        <path id="Path_640" data-name="Path 640" class="cls-3" d="M27.616,55.233a90.116,90.116,0,0,0,90.116-90.116A90.116,90.116,0,0,0,27.616-125,90.116,90.116,0,0,0-62.5-34.884,90.116,90.116,0,0,0,27.616,55.233" transform="translate(62.5 125)"/>
      </g>
      <g id="Group_926" data-name="Group 926" transform="translate(2.884 2.884)">
        <path id="Path_641" data-name="Path 641" class="cls-4" d="M27.616,55.233a90.116,90.116,0,0,0,90.116-90.116A90.116,90.116,0,0,0,27.616-125,90.116,90.116,0,0,0-62.5-34.884,90.116,90.116,0,0,0,27.616,55.233Z" transform="translate(62.5 125)"/>
      </g>
    </g>
    <path id="Path_643" data-name="Path 643" class="cls-5" d="M126.491-17.615H31.563V-87.708h94.928Z" transform="translate(13.946 147.245)"/>
    <path id="Path_644" data-name="Path 644" class="cls-6" d="M126.926-17.18H31.332V-87.939h95.594Z" transform="translate(13.844 147.143)"/>
    <path id="Path_645" data-name="Path 645" class="cls-3" d="M90.925-36.883H74.788v-8.634H90.925Z" transform="translate(33.046 165.888)"/>
    <g id="Group_932" data-name="Group 932" class="cls-2">
      <g id="Group_928" data-name="Group 928" transform="translate(68.969 83.647)">
        <path id="Path_646" data-name="Path 646" class="cls-3" d="M4.008,3.514a1.412,1.412,0,0,0-1-1c-.1-.016-.193-.017-.291-.029-.275-.584-.551-1.165-.8-1.748A50.783,50.783,0,0,0-2.013-7.35a1,1,0,0,0-1.373-.322,1.265,1.265,0,0,0-1.971.506c-.959,2.921-1.563,5.94-2.257,8.932C-8.225,4.413-9.182,7.12-9.061,9.85a1.067,1.067,0,0,0,1.975.535A15.16,15.16,0,0,0-5.83,6.87a1.054,1.054,0,0,0,1.054-.032A12.681,12.681,0,0,1,.716,5.382,11.5,11.5,0,0,0,2.579,8.447a1.088,1.088,0,0,0,1.846-.764,10.622,10.622,0,0,0-.7-2.874,1.144,1.144,0,0,0,.285-1.295m-9.327.949c.125-.656.249-1.311.391-1.955C-4.391.024-3.812-2.449-3.4-4.954c.719,2.32,1.758,4.561,2.689,6.793.1.229.189.464.281.7A14.061,14.061,0,0,0-5.319,4.463" transform="translate(9.071 7.953)"/>
      </g>
      <g id="Group_929" data-name="Group 929" transform="translate(87.715 83.719)">
        <path id="Path_647" data-name="Path 647" class="cls-3" d="M1.989.053a5.771,5.771,0,0,0-5,.98A4.242,4.242,0,0,0-4.253,2.619a1.1,1.1,0,0,0-.163.45,24.533,24.533,0,0,0,1.227,9.312c.7,2.425,1.226,5.258,3.3,6.82a.872.872,0,0,0,1.277-.521c.007-.037.006-.075.012-.114C5,22.022,10.165,17.8,10.96,13.7c.327-1.694-.156-4.246-1.834-5.155-1.864-1.011-3.688-.4-5.517-.332C5.2,5.192,6.192.953,1.989.053M5.178,11.02c2.856-.459,3.057,2.075,2.06,4-1.018,1.968-3.208,1.789-4.842.965a1.261,1.261,0,0,0-1.139-.039C.884,14.471.145,13.03-.326,11.591a52.3,52.3,0,0,1-1.717-7.6,1.061,1.061,0,0,0,.108-.373A7.931,7.931,0,0,0-.177,2.9q3.227.848,1.662,3.313a11.675,11.675,0,0,1-1.53,2.1A1.566,1.566,0,0,0,.635,10.89a8.394,8.394,0,0,0,4.543.13" transform="translate(4.501 0.12)"/>
      </g>
      <g id="Group_930" data-name="Group 930" transform="translate(106.007 85.238)">
        <path id="Path_648" data-name="Path 648" class="cls-3" d="M2.848.755c1.031.089,1.244-1.329.493-1.818C-1.264-4.054-6.456,4.127-6.446,8c.019,6.2,8.98,6.069,13.065,4.954A1.2,1.2,0,0,0,6.9,10.78C4.188,9.008.768,11.045-2.119,9.672-5.959,7.847.038.511,2.848.755" transform="translate(6.446 1.708)"/>
      </g>
      <g id="Group_931" data-name="Group 931" transform="translate(104.392 118.512)">
        <path id="Path_649" data-name="Path 649" class="cls-3" d="M1.008,0l.13.037A.369.369,0,0,1,1.39.5l-2.817,9.841a.37.37,0,0,1-.457.254l-.128-.037a.37.37,0,0,1-.254-.456L.552.258A.368.368,0,0,1,1.008,0" transform="translate(2.281 0.01)"/>
      </g>
    </g>
  </g>
</svg>
