<svg xmlns="http://www.w3.org/2000/svg" xmlns:xlink="http://www.w3.org/1999/xlink" viewBox="976.5 4809.5 186 186">
  <defs>
    <style>
      .cls-1, .cls-4, .cls-6, .cls-7, .cls-8 {
        fill: none;
      }

      .cls-2 {
        clip-path: url(#clip-path);
      }

      .cls-3 {
        fill: #fff;
      }

      .cls-4, .cls-6, .cls-7, .cls-8 {
        stroke: #05f;
      }

      .cls-4 {
        stroke-width: 4px;
      }

      .cls-5 {
        fill: #05f;
      }

      .cls-6 {
        stroke-miterlimit: 10;
        stroke-width: 0.5px;
      }

      .cls-7, .cls-8 {
        stroke-linecap: round;
        stroke-linejoin: round;
      }

      .cls-8 {
        stroke-width: 0.3px;
      }
    </style>
    <clipPath id="clip-path">
      <path id="Path_772" data-name="Path 772" class="cls-1" d="M0,57H186V-129H0Z" transform="translate(0 129)"/>
    </clipPath>
  </defs>
  <g id="Group_1036" data-name="Group 1036" transform="translate(976.5 4809.5)">
    <g id="Group_1033" data-name="Group 1033" class="cls-2">
      <g id="Group_1027" data-name="Group 1027" transform="translate(2.884 2.884)">
        <path id="Path_766" data-name="Path 766" class="cls-3" d="M27.616,55.233a90.116,90.116,0,0,0,90.116-90.116A90.116,90.116,0,0,0,27.616-125,90.116,90.116,0,0,0-62.5-34.884,90.116,90.116,0,0,0,27.616,55.233" transform="translate(62.5 125)"/>
      </g>
      <g id="Group_1028" data-name="Group 1028" transform="translate(2.884 2.884)">
        <path id="Path_767" data-name="Path 767" class="cls-4" d="M27.616,55.233a90.116,90.116,0,0,0,90.116-90.116A90.116,90.116,0,0,0,27.616-125,90.116,90.116,0,0,0-62.5-34.884,90.116,90.116,0,0,0,27.616,55.233Z" transform="translate(62.5 125)"/>
      </g>
      <g id="Group_1029" data-name="Group 1029" transform="translate(45.004 43.775)">
        <path id="Path_768" data-name="Path 768" class="cls-5" d="M5.477,26.182H-1.546a5.223,5.223,0,0,1-5.2-5.217V-37.349a5.223,5.223,0,0,1,5.2-5.217H45.966l-6.187,6.2a2.823,2.823,0,0,0,0,4,2.835,2.835,0,0,0,1.985.838,2.713,2.713,0,0,0,1.985-.838L54.765-43.4a2.867,2.867,0,0,0,.836-1.988,2.777,2.777,0,0,0-.836-1.991L43.75-58.422a2.808,2.808,0,0,0-3.991,0,2.822,2.822,0,0,0,0,4l6.187,6.2H-1.546A10.877,10.877,0,0,0-12.4-37.349V20.987A10.877,10.877,0,0,0-1.546,31.859H5.5A2.813,2.813,0,0,0,8.32,29.031a2.849,2.849,0,0,0-2.843-2.849" transform="translate(12.395 59.255)"/>
      </g>
      <g id="Group_1030" data-name="Group 1030" transform="translate(45.004 43.775)">
        <path id="Path_769" data-name="Path 769" class="cls-6" d="M5.477,26.182H-1.546a5.223,5.223,0,0,1-5.2-5.217V-37.349a5.223,5.223,0,0,1,5.2-5.217H45.966l-6.187,6.2a2.823,2.823,0,0,0,0,4,2.835,2.835,0,0,0,1.985.838,2.713,2.713,0,0,0,1.985-.838L54.765-43.4a2.867,2.867,0,0,0,.836-1.988,2.777,2.777,0,0,0-.836-1.991L43.75-58.422a2.808,2.808,0,0,0-3.991,0,2.822,2.822,0,0,0,0,4l6.187,6.2H-1.546A10.877,10.877,0,0,0-12.4-37.349V20.987A10.877,10.877,0,0,0-1.546,31.859H5.5A2.813,2.813,0,0,0,8.32,29.031,2.849,2.849,0,0,0,5.477,26.182Z" transform="translate(12.395 59.255)"/>
      </g>
      <g id="Group_1031" data-name="Group 1031" transform="translate(73.248 54.878)">
        <path id="Path_770" data-name="Path 770" class="cls-5" d="M17.519,0H10.474A2.813,2.813,0,0,0,7.653,2.827a2.813,2.813,0,0,0,2.822,2.827h7.045a5.225,5.225,0,0,1,5.205,5.217V69.208a5.224,5.224,0,0,1-5.205,5.215H-29.993l6.188-6.2a2.823,2.823,0,0,0,0-4,2.808,2.808,0,0,0-3.994,0L-38.814,75.261a2.866,2.866,0,0,0-.835,1.99,2.784,2.784,0,0,0,.835,1.991L-27.8,90.281a2.847,2.847,0,0,0,1.987.838,2.751,2.751,0,0,0,1.985-.838,2.825,2.825,0,0,0,0-4l-6.187-6.2H17.5A10.877,10.877,0,0,0,28.348,69.208V10.872A10.833,10.833,0,0,0,17.519,0" transform="translate(39.649)"/>
      </g>
      <g id="Group_1032" data-name="Group 1032" transform="translate(73.248 54.878)">
        <path id="Path_771" data-name="Path 771" class="cls-6" d="M17.519,0H10.474A2.813,2.813,0,0,0,7.653,2.827a2.813,2.813,0,0,0,2.822,2.827h7.045a5.225,5.225,0,0,1,5.205,5.217V69.208a5.224,5.224,0,0,1-5.205,5.215H-29.993l6.188-6.2a2.823,2.823,0,0,0,0-4,2.808,2.808,0,0,0-3.994,0L-38.814,75.261a2.866,2.866,0,0,0-.835,1.99,2.784,2.784,0,0,0,.835,1.991L-27.8,90.281a2.847,2.847,0,0,0,1.987.838,2.751,2.751,0,0,0,1.985-.838,2.825,2.825,0,0,0,0-4l-6.187-6.2H17.5A10.877,10.877,0,0,0,28.348,69.208V10.872A10.833,10.833,0,0,0,17.519,0Z" transform="translate(39.649)"/>
      </g>
    </g>
    <g id="Group_1034" data-name="Group 1034" transform="translate(60.377 78.475)">
      <path id="Path_773" data-name="Path 773" class="cls-7" d="M0,0H29.048M0,4.774H29.048M0,9.549H29.048M0,14.323H29.048M0,19.1H29.048M0,23.873H29.048M0,28.648H29.048M0,33.422H29.048M36.234,0H65.28M36.234,4.774H65.28M36.234,9.549H65.28M36.234,14.323H65.28M36.234,19.1H65.28M36.234,23.873H65.28M36.234,28.648H65.28M36.234,33.422H65.28"/>
    </g>
    <g id="Group_1035" data-name="Group 1035" transform="translate(93.017 75.085)">
      <path id="Path_774" data-name="Path 774" class="cls-8" d="M0,0V39.8"/>
    </g>
  </g>
</svg>
