<svg xmlns="http://www.w3.org/2000/svg" xmlns:xlink="http://www.w3.org/1999/xlink" viewBox="976 1661 186.5 186.5">
  <defs>
    <style>
      .cls-1, .cls-4 {
        fill: none;
      }

      .cls-2 {
        clip-path: url(#clip-path);
      }

      .cls-3 {
        fill: #fff;
      }

      .cls-4 {
        stroke: #feb230;
        stroke-width: 4px;
      }

      .cls-5 {
        fill: #2f3131;
      }
    </style>
    <clipPath id="clip-path">
      <path id="Path_620" data-name="Path 620" class="cls-1" d="M0,57.5H186.5V-129H0Z" transform="translate(0 129)"/>
    </clipPath>
  </defs>
  <g id="Group_892" data-name="Group 892" transform="translate(976 1661)">
    <g id="Group_891" data-name="Group 891" class="cls-2">
      <g id="Group_883" data-name="Group 883" transform="translate(2.891 2.891)">
        <path id="Path_612" data-name="Path 612" class="cls-3" d="M27.859,55.717a90.358,90.358,0,0,0,90.359-90.359A90.358,90.358,0,0,0,27.859-125,90.358,90.358,0,0,0-62.5-34.641,90.358,90.358,0,0,0,27.859,55.717" transform="translate(62.5 125)"/>
      </g>
      <g id="Group_884" data-name="Group 884" transform="translate(2.891 2.891)">
        <path id="Path_613" data-name="Path 613" class="cls-4" d="M27.859,55.717a90.358,90.358,0,0,0,90.359-90.359A90.358,90.358,0,0,0,27.859-125,90.358,90.358,0,0,0-62.5-34.641,90.358,90.358,0,0,0,27.859,55.717Z" transform="translate(62.5 125)"/>
      </g>
      <g id="Group_885" data-name="Group 885" transform="translate(72.852 110.698)">
        <path id="Path_614" data-name="Path 614" class="cls-5" d="M13.636,9.085,13.3-20.382,10.5-6.491,9.11.481h0l-.111.555c-.007.039-.017.08-.027.119C8.886,1.45,6.885,8.368-3.625,8.368H-30.462l-.016.094a6.542,6.542,0,0,0,1.618,5.673,5.87,5.87,0,0,0,4.347,1.937h32.1a5.885,5.885,0,0,0,4.159-1.742,6.558,6.558,0,0,0,1.89-5.245" transform="translate(30.591 20.382)"/>
      </g>
      <g id="Group_886" data-name="Group 886" transform="translate(52.591 105.34)">
        <path id="Path_615" data-name="Path 615" class="cls-5" d="M9.726,1.419H-10.2a1.909,1.909,0,0,1-1.923-1.7l-.272-2.9-6.113,6.315c-.924.876-3.327,3.716-3.314,6.264a3.85,3.85,0,0,0,1.375,2.887l.058.056c.069.067,2.221,2.073,6.908,1.9h.026a7.964,7.964,0,0,1,.557-.786,9.985,9.985,0,0,1,7.272-3.3l.1-.006,3.856-.093L.346,10l2.018-.049L12.41,9.711a4.279,4.279,0,0,0,1.2-2.436l-.036-.243.048-.055c.328-2.76-1.7-4.493-3.9-5.557" transform="translate(21.821 3.184)"/>
      </g>
      <g id="Group_887" data-name="Group 887" transform="translate(64.639 84.704)">
        <path id="Path_616" data-name="Path 616" class="cls-5" d="M5.991,6.512,3.932-9.446c-.009-.043-.023-.081-.032-.124a5.987,5.987,0,0,0-1.472-2.97c-.085-.09-.187-.168-.278-.252a5.875,5.875,0,0,0-1.508-.986l-.126-.058a8.177,8.177,0,0,0-1.2-.425c-.289-.075-.577-.134-.859-.182A12.614,12.614,0,0,0-5-14.533a2.074,2.074,0,0,1-.213.02c-3.558.142-6.01,1.356-7.287,3.609a7.6,7.6,0,0,0-.946,3.558L-13-2.609l.234,2.492.234,2.491L-12.1,6.89H6.038Z" transform="translate(13.44 14.61)"/>
      </g>
      <g id="Group_888" data-name="Group 888" transform="translate(63.311 74.44)">
        <path id="Path_617" data-name="Path 617" class="cls-5" d="M16.4,3.36A14.142,14.142,0,0,0,15.858,1.5,13.856,13.856,0,0,0,7.314-6.648C-5.731-10.449-14.654-.861-14.742-.764l-.033.036-1.65,1.7-.8.823a8.98,8.98,0,0,1,.941,1.012,9.861,9.861,0,0,1,1.991,4.456c.007.035.012.069.017.1l2.385,18.491a1.759,1.759,0,0,1,0,.2,8.6,8.6,0,0,1,3.607,5.677,8.338,8.338,0,0,1,.053,2.075,6.24,6.24,0,0,1-.49,2.336l1.67-.04.733-3.238,3.742-16.522a1.931,1.931,0,0,1,2.3-1.427A1.871,1.871,0,0,1,1.2,17.146L.551,20.021-2.813,34.882-3.6,38.337a1.912,1.912,0,0,1-1.836,1.469l-6.159.15-3.367.081-4.719.114-4.334.106-2.02.049-2.02.049-3.029.074a9.478,9.478,0,0,0-1.69.288,5.284,5.284,0,0,0-2.824,1.632c-.072.087-.121.179-.184.267a5.27,5.27,0,0,0-.844,1.879,6.822,6.822,0,0,0-.15,2.125,1.749,1.749,0,0,1,.017.26,6.511,6.511,0,0,0,5.128,6.847H-.29c6.117,0,8.132-2.9,8.683-4.016l1.2-5.7.372-1.768.016.01.3-1.508,6.146-30.506.249-1.23A17.741,17.741,0,0,0,16.4,3.36" transform="translate(36.798 7.539)"/>
      </g>
      <g id="Group_889" data-name="Group 889" transform="translate(80.48 36.641)">
        <path id="Path_618" data-name="Path 618" class="cls-5" d="M6.387.07A17.877,17.877,0,1,0,21.229,20.559,17.889,17.889,0,0,0,6.387.07" transform="translate(14.329 0.157)"/>
      </g>
      <g id="Group_890" data-name="Group 890" transform="translate(66.678 65.368)">
        <path id="Path_619" data-name="Path 619" class="cls-5" d="M2.855,0A9.261,9.261,0,0,0-6.4,9.26a9.227,9.227,0,0,0,3,6.811A9.283,9.283,0,0,0,2.855,18.52a9.258,9.258,0,0,0,1.71-.165,9.168,9.168,0,0,0,1-.241c.162-.049.315-.111.473-.169a9.236,9.236,0,0,0,1.8-.893,9.313,9.313,0,0,0,1.668-1.368A9.253,9.253,0,0,0,2.855,0" transform="translate(6.405)"/>
      </g>
    </g>
  </g>
</svg>
